<?xml version="1.0" encoding="utf-8"?>
<!-- Generator: Adobe Illustrator 24.0.1, SVG Export Plug-In . SVG Version: 6.00 Build 0)  -->
<svg version="1.1" id="Layer_1" xmlns="http://www.w3.org/2000/svg" xmlns:xlink="http://www.w3.org/1999/xlink" x="0px" y="0px"
	 viewBox="0 0 1366 768" style="enable-background:new 0 0 1366 768;" xml:space="preserve">
<path d="M1250.89,400.33c-11.05-13.36-32.63-24.02-64.75-31.99c35.46-3.34,59.22-13.36,71.3-30.06
	c12.07-16.7,18.11-49.33,18.11-97.89c0-53.19-8.54-91.92-25.63-116.2c-17.09-24.28-39.19-39.37-66.29-45.29
	c-27.11-5.91-78.95-8.86-155.51-8.86H913.27v526.85L834.93,70.03H721.17h-89.62v46.55h-40.89v44.67h38.27v44.82h-38.27v51.8h44.96
	v47.14H534.91c-6.81,68.7-12.38,138.11-16.66,208.24l-17.92-237.41c-9.56-118.96-15.46-187.56-17.7-205.81H314.14
	c-23.93,176.54-38.88,319.27-44.86,428.19l-16.58-210.48L235.55,70.03H77.92l72.63,623.98h201.43
	c23.7-165.71,38.78-274.79,45.26-327.21c14.19,122.28,30.56,231.35,49.11,327.21h71.3h131.28h36.47l9.76-112.15h58.04l8.71,112.15
	h151.38h14.44h147.81V412.66c22.35,0,36.16,3.99,41.43,11.95c5.26,7.97,7.9,28.65,7.9,62.05v207.35h150.7V529.44
	c0-50.36-1.35-81.13-4.05-92.31C1268.82,425.96,1261.94,413.69,1250.89,400.33z M693.08,471.24c4.23-55.23,14.61-142.6,31.14-262.08
	c8.26,104.05,16.5,191.4,24.71,262.08H693.08z M1124.87,259.27c0,27.5-3.66,43.74-10.98,48.75c-7.32,5.01-20.11,7.52-38.35,7.52
	V176.79c18.75,0,31.66,3.08,38.73,9.25c7.06,6.17,10.6,19.14,10.6,38.93V259.27z"/>
</svg>
