<?xml version="1.0" encoding="utf-8"?>
<!-- Generator: Adobe Illustrator 24.0.3, SVG Export Plug-In . SVG Version: 6.00 Build 0)  -->
<svg version="1.1" id="Layer_1" xmlns="http://www.w3.org/2000/svg" xmlns:xlink="http://www.w3.org/1999/xlink" x="0px" y="0px"
	 viewBox="0 0 1366 768" style="enable-background:new 0 0 1366 768;" xml:space="preserve">
<style type="text/css">
	.st0{clip-path:url(#SVGID_2_);fill:#FFFFFF;}
	.st1{clip-path:url(#SVGID_2_);}
	.st2{fill:none;stroke:#FFFFFF;stroke-width:7.768;stroke-miterlimit:6.215;}
</style>
<g>
	<defs>
		<rect id="SVGID_1_" x="68.76" y="212.29" width="1123.18" height="380.95"/>
	</defs>
	<clipPath id="SVGID_2_">
		<use xlink:href="#SVGID_1_"  style="overflow:visible;"/>
	</clipPath>
	<path class="st0" d="M432.37,349.11c0,9.42-1.27,14.98-3.82,16.7c-2.54,1.71-6.98,2.57-13.32,2.57v-47.52
		c6.51,0,11,1.06,13.45,3.17c2.45,2.11,3.68,6.56,3.68,13.33V349.11z M282.41,421.71c1.47-18.92,5.07-48.84,10.82-89.76
		c2.87,35.64,5.73,65.56,8.58,89.76H282.41z M476.14,397.42c-3.84-4.57-11.33-8.23-22.49-10.96c12.31-1.14,20.57-4.57,24.76-10.3
		c4.19-5.72,6.29-16.9,6.29-33.53c0-18.22-2.97-31.48-8.9-39.8c-5.93-8.32-13.61-13.48-23.02-15.51
		c-9.42-2.02-27.42-3.04-54.01-3.04h-39.89v180.44l-27.21-180.44h-39.51h-31.12v15.94h-14.2v15.3h13.29v15.35h-13.29v17.74h15.62
		v16.15h-34.98c-2.37,23.53-4.3,47.3-5.79,71.32l-6.23-81.31c-3.32-40.74-5.37-64.24-6.15-70.49H150.8
		c-8.31,60.46-13.5,109.35-15.58,146.65l-5.76-72.09l-5.95-74.57H68.76l25.23,213.71h69.95c8.23-56.76,13.47-94.11,15.72-112.07
		c4.93,41.88,10.61,79.24,17.06,112.07h24.76h45.59h12.67l3.39-38.41h20.16l3.02,38.41h52.57h5.02h51.34v-96.36
		c7.76,0,12.56,1.36,14.39,4.09c1.83,2.73,2.74,9.81,2.74,21.25v71.02h52.34v-56.36c0-17.25-0.47-27.79-1.41-31.61
		C482.36,406.2,479.97,402,476.14,397.42"/>
	<g class="st1">
		<path class="st2" d="M638.09,498.01V367.52l-29.74,130.49h-29.74l-25.38-130.75v130.75h-42.3V292.92h66.65l20.25,93.57
			l19.74-93.57h67.68v205.09H638.09z"/>
		<path class="st2" d="M764.98,498.01l-2.31-29.48h-22.82l-3.59,29.48h-41.79l31.02-205.09h56.4l31.79,205.09H764.98z
			 M753.45,362.13l-8.2,64.86h13.33L753.45,362.13z"/>
		<path class="st2" d="M911.11,498.01l-6.15-8.72c-5.64,6.15-18.2,12.56-31.79,12.56c-33.07,0-51.79-20-51.79-42.81V331.88
			c0-20.77,23.59-42.81,57.68-42.81c34.61,0,56.91,22.05,56.91,42.81v40.76h-46.66v-34.61c0-5.38-4.61-8.72-10.25-8.72
			c-5.64,0-10,3.33-10,8.72v117.41c0,5.64,4.36,8.72,10,8.72c5.64,0,10.25-3.08,10.25-8.72v-27.94h-10.25v-29.74h60.25v100.24
			H911.11z"/>
	</g>
</g>
</svg>
